<svg data-v-73fdaaa2="" version="1.0" xmlns="http://www.w3.org/2000/svg" xmlns:xlink="http://www.w3.org/1999/xlink" width="100%" height="100%" viewBox="0 0 340.000000 250.000000" preserveAspectRatio="xMidYMid meet" color-interpolation-filters="sRGB" class="el-tooltip" style="margin: auto;"><rect data-v-73fdaaa2="" x="0" y="0" width="100%" height="100%" fill="#fff" fill-opacity="1"></rect> <rect data-v-73fdaaa2="" x="0" y="0" width="100%" height="100%" fill="url(#watermark)" fill-opacity="1" class="watermarklayer"></rect> <g data-v-73fdaaa2="" fill="#0a50a1" class="icon-svg-group iconsvg" transform="translate(129.76499557495117,84.57211303710938)"><g class="iconsvg-imagesvg" transform="translate(10.232921600341797,0)"><rect fill="#0a50a1" fill-opacity="0" stroke-width="2" x="0" y="0" width="60" height="23.143273838461"></rect> <svg x="0" y="0" width="60" height="23.143273838461" class="imagesvg-svg"><svg xmlns="http://www.w3.org/2000/svg" viewBox="0 0 143.99 55.54"><g><g><path d="M68.92 55.4L121.85 0h21.91l-37 40.37H144l-14.59 15z" fill="#fee3b9"></path><path d="M80.19.14l-52.93 55.4H5.35l37-40.37h-29L0 .14z" fill="#b5bfdc"></path><path d="M102.27.14l-52.93 55.4H27.43l37-40.37h-29L22.08.14z" fill="#0a50a1"></path><path d="M48.18 55.4L101.11 0H123L86 40.37h37.26l-14.59 15z" fill="#fe9f34"></path></g></g></svg></svg> <!----></g> <g transform="translate(0,30.143274307250977)"><g class="tp-name iconsvg-namesvg" transform="translate(8.075004577636719,0)"><g><path transform="translate(-1.48,34.76)" d="M19.88-21.92L19.88-34.44L15.36-34.44L15.36-17.28L11.68-17.28L11.68-16.48L15.36-16.48L15.36-1L13.12-0.24L16.44 4.40L24-4.04L19.88-2.60L19.88-16.48L22.04-16.48C22.44-10 23.92-2.36 27.96 2.60L32.12-1.36C28.32-6.08 25.20-11.12 22.72-16.48L31.68-16.48L31.68-17.28L19.88-17.28L19.88-20.64L30.44-28.84L26.44-32.88ZM7.92-13.12L5.68-13.12L5.68-21.96L8.04-21.96L8.04-18.92L12.16-18.92L12.16-33.04L8.04-33.04L8.04-31.92L1.48-31.92L1.48-31.16L8.04-31.16L8.04-22.76L5.68-22.76L5.68-23.80L1.52-23.80L1.52-10.52L5.68-10.52L5.68-12.36L7.92-12.36L7.92-0.16L4.04-0.16L7.92 2.72L7.92 4.60C11.52 4.52 12.16 2.60 12.16 0.40L12.16-14.44L7.92-14.44ZM39.16 3.12L43.60-0.16L42.48 4C45.84 0.36 48.24-3.76 50.04-8.68L52.28-2.28L56-4.68C54.68-7.04 52.36-8.60 50.28-9.40L50.88-11.32L56.68-11.32L56.68-0.16L52.68-0.16L56.68 2.56L56.68 4.68C60.56 4.80 61.40 3.44 61.40 0.56L61.40-11.32L65.72-11.32L65.72-12.12L61.40-12.12L61.40-15.40L56.68-15.40L56.68-12.12L51.16-12.12C51.64-13.72 52.04-15.40 52.44-17.16L65.80-17.16L65.80-17.96L52.60-17.96C52.92-19.40 53.24-20.92 53.52-22.52L63.76-22.52L63.76-23.32L53.68-23.32L54.40-27.84L64.60-27.84L64.60-28.64L54.48-28.64C54.72-30.32 55-32.04 55.24-33.88L50.08-34.76L49.24-28.64L44.84-28.64L44.84-27.84L49.12-27.84L48.40-23.32L44.84-23.32L44.84-22.52L48.28-22.52L47.48-17.96L42.80-17.96L43.28-21.48L37.92-8.16C37.08-8.84 36.24-9.44 35.40-9.96ZM41.16-5.04L42.72-17.16L47.32-17.16C46.32-11.68 45.16-6.32 43.84-1.04C43.12-2.52 42.20-3.84 41.16-5.04ZM37.96-16.40L41.60-19.88C40-21.92 37.48-23.56 34.96-24.48ZM40.48-26.32L44.12-29.48C42.56-31.32 40.04-32.84 37.48-33.68Z"></path></g> <!----> <!----> <!----> <!----> <!----> <!----> <!----></g> <g class="tp-slogan iconsvg-slogansvg" fill="#fe9f34" transform="translate(0,41.7599983215332)"><g transform="translate(0,4.100000381469727)"><path transform="translate(-0.492,3.384)" d="M0.49-3.38L0.49-2.63L3.25-2.63L3.25-3.38Z"></path></g> <g transform="translate(77.71000456809998,4.100000381469727)"><path transform="translate(-0.492,3.384)" d="M0.49-3.38L0.49-2.63L3.25-2.63L3.25-3.38Z"></path></g> <!----> <!----> <g transform="translate(5.759999990463257,0)"><path transform="translate(-0.28125,8.8125)" d="M1.73-1.03L7.03-1.03L7.03 0L0.28 0L0.28-0.94L5.53-7.59L0.66-7.59L0.66-8.58L7.03-8.58L7.03-7.59L1.73-1.03ZM9.33-5.06L13.83-5.06L13.83-8.58L15-8.58L15 0L13.83 0L13.83-3.98L9.33-3.98L9.33 0L8.16 0L8.16-8.58L9.33-8.58L9.33-5.06ZM22.45 0L21.61-2.48L18.14-2.48L17.25 0L16.08 0L19.31-8.58L20.63-8.58L23.72 0L22.45 0ZM19.88-7.31L18.52-3.52L21.19-3.52L19.92-7.31L19.88-7.31ZM26.16-8.58L30.47-1.64L30.47-8.58L31.59-8.58L31.59 0L30.28 0L25.92-6.94L25.88-6.94L25.88 0L24.75 0L24.75-8.58L26.16-8.58ZM39.80-3.61L37.17-3.61L37.17-4.59L40.92-4.59L40.92 0L40.17 0L39.89-1.08L39.89-1.08Q38.91 0.09 37.08 0.14L37.08 0.14L37.08 0.14Q35.34 0.14 34.41-0.75L34.41-0.75L34.41-0.75Q33-2.06 33.05-4.36L33.05-4.36L33.05-4.36Q33.38-8.63 37.13-8.81L37.13-8.81L37.13-8.81Q40.31-8.63 40.78-6L40.78-6L39.66-6L39.66-6Q39.19-7.78 37.08-7.83L37.08-7.83L37.08-7.83Q34.41-7.64 34.27-4.31L34.27-4.31L34.27-4.31Q34.27-0.75 37.13-0.75L37.13-0.75L37.13-0.75Q38.16-0.75 38.91-1.31L38.91-1.31L38.91-1.31Q39.84-2.06 39.80-3.61L39.80-3.61ZM48.23-7.59L45.33-7.59L45.33-8.58L52.27-8.58L52.27-7.59L49.36-7.59L49.36 0L48.23 0L48.23-7.59ZM58.97 0L58.13-2.48L54.66-2.48L53.77 0L52.59 0L55.83-8.58L57.14-8.58L60.23 0L58.97 0ZM56.39-7.31L55.03-3.52L57.70-3.52L56.44-7.31L56.39-7.31ZM68.06-4.27L68.06-4.27L68.06-4.27Q67.88-7.64 65.06-7.83L65.06-7.83L65.06-7.83Q62.20-7.69 62.06-4.27L62.06-4.27L62.06-4.27Q62.20-0.94 65.06-0.80L65.06-0.80L65.06-0.80Q67.88-0.98 68.06-4.27ZM69.23-4.27L69.23-4.27L69.23-4.27Q68.95 0 65.06 0.14L65.06 0.14L65.06 0.14Q61.13 0 60.84-4.27L60.84-4.27L60.84-4.27Q61.08-8.72 65.06-8.81L65.06-8.81L65.06-8.81Q68.95-8.67 69.23-4.27Z"></path></g></g></g></g></svg>